<svg xmlns="http://www.w3.org/2000/svg" width="298" height="120" fill="none" viewBox="0 0 298 120">
  <path fill="#252740" d="M5.462 26.691H22.01c6.656 0 11.853.633 15.573 1.905 3.726 1.265 6.385 3.344 7.978 6.226 1.594 2.881 2.397 6.896 2.397 12.045s-.745 9.164-2.249 12.045c-1.503 2.881-3.99 4.955-7.478 6.226-3.488 1.265-8.364 1.904-14.628 1.904H5.456V26.698l.007-.007ZM23.61 55.855h1.066c1.658 0 2.878-.238 3.662-.72.79-.482 1.33-1.334 1.625-2.562.296-1.228.444-3.113.444-5.65 0-2.537-.167-4.648-.501-5.994-.334-1.347-.906-2.268-1.716-2.769-.81-.5-1.959-.751-3.456-.751h-2.248v18.44h1.124v.006Zm27.605-29.164h35.108v12.277l-19.388-.576v5.819l18.264-.232v5.594l-18.264-.288v6.05l20.217-.576v12.277H51.215V26.69Zm51.367 40.458c-2.801-.464-5.287-1.172-7.478-2.13-2.184-.958-4.047-2.192-5.582-3.69l7.33-9.971c.237.157.944.539 2.126 1.152a32.976 32.976 0 0 0 4.343 1.617c1.554.463 3.173.814 4.844 1.064 1.676.25 3.321.376 4.933.376 1.613 0 2.814-.088 3.726-.257.913-.169 1.529-.394 1.863-.664.334-.269.502-.576.502-.92 0-.27-.071-.502-.206-.69-.141-.194-.347-.338-.623-.432-.276-.094-.63-.144-1.067-.144-4.689 0-8.936-.344-12.739-1.04-3.803-.695-6.977-2.048-9.514-4.065-2.544-2.016-3.81-4.866-3.81-8.556 0-2.499.591-4.716 1.773-6.658 1.183-1.942 3.245-3.514 6.18-4.723 2.936-1.209 6.887-1.816 11.853-1.816 3.469 0 6.996.325 10.581.977 3.585.651 6.623 1.46 9.103 2.418l-6.681 10.084a27.66 27.66 0 0 0-3.604-1.209 33.79 33.79 0 0 0-4.375-.833 39.379 39.379 0 0 0-5.139-.32c-1.382 0-2.435.126-3.161.376-.733.251-1.092.702-1.092 1.353 0 .464.225.827.681 1.097.449.269 1.13.444 2.036.52 1.028.112 2.075.219 3.161.319 1.086.094 2.216.2 3.398.32 3.508.306 6.482.876 8.924 1.697 2.441.827 4.355 2.067 5.736 3.714 1.382 1.654 2.069 3.783 2.069 6.395 0 3.69-1.066 6.684-3.193 8.989-2.126 2.305-4.767 3.94-7.921 4.898a33.17 33.17 0 0 1-9.694 1.44c-3.309 0-6.482-.231-9.283-.688Zm32.564-40.458h19.151v40.345h-19.151V26.69Zm32.07 38.497c-3.289-1.572-5.744-3.896-7.362-6.971-1.619-3.076-2.422-6.878-2.422-11.413s.918-8.224 2.749-11.294c1.831-3.075 4.748-5.418 8.75-7.034 4.002-1.616 9.154-2.417 15.457-2.417 4.811 0 8.865.394 12.174 1.183 3.308.79 6.006 1.798 8.1 3.026l-6.443 11.7c0-.463-.758-.914-2.274-1.353-1.516-.438-3.347-.808-5.499-1.096-2.152-.288-4.048-.432-5.705-.432-2.011 0-3.585.27-4.728.808-1.144.539-1.979 1.46-2.512 2.769-.533 1.309-.797 3.113-.797 5.418 0 1.729.276 3.113.829 4.146.552 1.034 1.381 1.785 2.48 2.249 1.098.464 2.563.689 4.375.689 1.535 0 2.923-.113 4.169-.344 1.246-.232 2.274-.633 3.103-1.21.829-.576 1.298-1.346 1.42-2.304V49.98l-17.082.689v-5.011h30.322v21.44h-11.525c-.116-.689-.411-3.094-.887-7.203-.314-2.844-.494-4.322-.533-4.435-.038-.112-.077-.15-.116-.112-.038.037-.077.138-.115.288-.276 3.038-.938 5.418-1.979 7.147-1.041 1.728-2.48 2.956-4.317 3.689-1.837.733-4.208 1.096-7.124 1.096-5.043 0-9.213-.79-12.502-2.361l-.006-.019Zm42.587-38.497h9.874v40.345h-9.874V26.69Zm6.206 0h18.977l14.011 40.345h-19.504L216.015 26.69h-.006Zm28.786 19.97V26.69h10.048v40.345h-10.048V46.66ZM17.52 118.785c-2.802-.463-5.288-1.171-7.478-2.129-2.185-.959-4.048-2.193-5.583-3.69l7.33-9.971c.238.156.944.538 2.126 1.152a32.9 32.9 0 0 0 4.343 1.616 35.25 35.25 0 0 0 4.844 1.065 33.3 33.3 0 0 0 4.934.376c1.612 0 2.814-.088 3.726-.257.912-.169 1.529-.395 1.863-.664.334-.269.501-.576.501-.921 0-.269-.07-.501-.206-.689-.14-.194-.346-.338-.623-.432-.276-.094-.63-.144-1.066-.144-4.69 0-8.936-.344-12.74-1.04-3.803-.689-6.976-2.048-9.514-4.065-2.544-2.017-3.81-4.867-3.81-8.556 0-2.5.592-4.717 1.774-6.658 1.182-1.942 3.244-3.514 6.18-4.723 2.936-1.21 6.887-1.817 11.853-1.817 3.469 0 6.996.326 10.58.977 3.585.652 6.624 1.46 9.103 2.418l-6.68 10.085a27.676 27.676 0 0 0-3.605-1.21 33.782 33.782 0 0 0-4.375-.832 39.376 39.376 0 0 0-5.139-.32c-1.381 0-2.435.126-3.16.376-.733.25-1.093.702-1.093 1.353 0 .464.225.827.681 1.096.45.27 1.13.445 2.037.52 1.027.113 2.075.22 3.16.32 1.086.094 2.217.2 3.399.32 3.507.306 6.482.876 8.923 1.697 2.441.826 4.356 2.067 5.737 3.714 1.381 1.654 2.068 3.783 2.068 6.395 0 3.689-1.066 6.684-3.192 8.989-2.127 2.305-4.767 3.939-7.922 4.898a33.18 33.18 0 0 1-9.694 1.44c-3.308 0-6.482-.231-9.283-.689Zm42.823-1.175c-3.566-1.591-6.257-3.978-8.069-7.147-1.812-3.17-2.717-7.135-2.717-11.901 0-4.767.905-8.732 2.717-11.901 1.812-3.17 4.503-5.55 8.069-7.147 3.565-1.591 7.992-2.393 13.272-2.393 5.281 0 9.765.796 13.33 2.393 3.566 1.597 6.245 3.977 8.037 7.147 1.793 3.17 2.692 7.14 2.692 11.9 0 4.761-.893 8.732-2.692 11.902-1.799 3.169-4.471 5.556-8.036 7.147-3.566 1.591-8.011 2.392-13.33 2.392-5.32 0-9.701-.795-13.273-2.392Zm15.99-8.475c.668-.52 1.182-1.591 1.535-3.226.354-1.635.533-4.084.533-7.347 0-3.264-.186-5.55-.559-7.203-.372-1.654-.892-2.756-1.567-3.314-.668-.558-1.555-.833-2.66-.833-1.105 0-1.927.282-2.602.833-.668.558-1.188 1.654-1.567 3.282-.373 1.635-.559 4.047-.559 7.235 0 3.188.167 5.718.501 7.347.334 1.635.835 2.706 1.51 3.226.674.52 1.574.777 2.717.777 1.144 0 2.05-.257 2.718-.777Zm34.968 8.5c-3.726-1.572-6.476-3.946-8.249-7.116-1.773-3.169-2.659-7.178-2.659-12.014 0-4.835.88-8.781 2.627-11.932 1.754-3.15 4.452-5.512 8.101-7.09 3.643-1.573 8.287-2.362 13.921-2.362 4.06 0 7.664.32 10.819.952 3.154.633 5.769 1.51 7.863 2.625l-6.977 11.581c-.238-.075-.495-.15-.771-.231-1.458-.502-2.756-.865-3.899-1.097-1.144-.231-2.544-.344-4.195-.344-2.011 0-3.662.213-4.966.633-1.298.425-2.313 1.208-3.045 2.36-.733 1.153-1.092 2.788-1.092 4.9 0 2.11.494 3.745 1.477 4.897.983 1.153 2.249 1.923 3.784 2.305 1.535.382 3.366.577 5.499.577 1.735 0 3.302-.107 4.696-.32 1.401-.213 2.589-.463 3.579-.751.989-.289 1.83-.608 2.544-.953l3.546 12.277c-1.928.921-4.504 1.729-7.716 2.418-3.212.689-6.732 1.04-10.548 1.04-5.833 0-10.613-.789-14.333-2.362l-.006.007ZM147.5 78.328h19.151v40.345H147.5V78.328Zm22.818 0h35.109v12.277l-19.389-.576v5.819l18.264-.232v5.593l-18.264-.288v6.051l20.217-.576v12.277h-35.937V78.328Zm44.04 13.054c-1.143.056-2.859.125-5.139.2V78.328h39.605v13.254a332.44 332.44 0 0 1-5.204-.2 334.161 334.161 0 0 0-5.139-.2v27.491h-18.855V91.181c-2.364.075-4.118.144-5.261.2h-.007Zm50.475 16.342-13.651-29.396h20.332l7.979 27.147c-.238-4.535-.475-9.057-.707-13.573a1584.45 1584.45 0 0 1-.648-13.574h19.863l-16.253 29.396v10.949h-16.902v-10.949h-.013Z"/>
  <path fill="#F56D4B" d="M1.246 10.918 0 4.842c6.058-1.178 12.225-1.735 18.187-2.274C24.624 1.992 31.279 1.391 37.588 0l1.4 6.044c-6.713 1.479-13.58 2.099-20.216 2.694-5.801.52-11.802 1.058-17.526 2.18Z"/>
  <path fill="#F56D4B" d="M18.983 31.661c-.52-5.324-1.304-10.053-2.14-15.058-.552-3.3-1.117-6.714-1.618-10.379l6.295-.814c.489 3.577 1.047 6.94 1.593 10.198.849 5.11 1.658 9.934 2.198 15.465l-6.328.582v.006Zm26.898-2.341c-5.473.458-6.566-4.766-7.086-7.29-.186-.89-.527-2.53-.886-2.938-.026.006-.103 0-.238.006-.578.038-.758.22-.855.332-.957 1.09-.937 4.09-.77 6.571.122 1.315.224 2.512.314 3.545l-6.328.533-.109-1.122a77.31 77.31 0 0 1-.244-2.806 2825.703 2825.703 0 0 0-1.927-20.375l6.321-.608c.219 2.142.502 5.08.803 8.256.746-.282 1.542-.439 2.416-.495 6.02-.357 7.176 5.211 7.735 7.88.141.682.36 1.74.584 2.304.546-.106 1.137-.35 1.754-.695-1.786-2.8-2.409-6.207-1.542-9.201 1.08-3.727 3.79-6.49 7.073-7.203 2.686-.583 5.416.319 7.298 2.43 3.103 3.489 2.377 8.995-1.677 12.81l-.552.52c1.657-.064 3.848-.414 6.56-1.028l1.432 6.032c-7.568 1.71-11.493 1.478-14.024.138-1.857 1.258-3.836 2.186-5.93 2.392a.806.806 0 0 0-.122.013Zm8.557-17.287c-.058 0-.11.013-.167.025-.81.175-1.85 1.121-2.345 2.838-.27.933-.154 2.267.437 3.532.334-.313.668-.626.983-.927l.752-.708c1.484-1.39 2.081-3.394 1.285-4.29-.373-.42-.681-.495-.951-.47h.006Z"/>
  <path fill="#252740" d="M92.031 6.93h1.835l.483 3.978c0 .063.024.102.064.11.04.008.065-.023.08-.086.218-.722.468-1.365.757-1.93.29-.565.74-1.067 1.344-1.515.604-.447 1.385-.667 2.342-.667 1.248 0 2.205.377 2.865 1.13.66.754.99 1.93.99 3.531v5.964h-2.438V11.48c0-1.036-.177-1.781-.523-2.244-.355-.455-.95-.69-1.795-.69-.724 0-1.36.22-1.9.659-.539.44-.949.95-1.23 1.538-.282.588-.427 1.059-.427 1.428v5.273h-2.439V6.938l-.008-.008Zm15.544 9.981c-.885-.455-1.545-1.09-1.98-1.899-.434-.808-.659-1.734-.659-2.785 0-1.216.257-2.237.764-3.037.507-.808 1.223-1.405 2.133-1.789.909-.385 1.971-.58 3.195-.58 1.32 0 2.414.219 3.299.658.878.44 1.537 1.06 1.972 1.868.427.808.644 1.766.644 2.88 0 1.114-.258 2.134-.765 2.942-.515.808-1.223 1.413-2.14 1.82-.918.409-1.972.613-3.171.613-1.32 0-2.423-.228-3.3-.69h.008Zm5.103-1.444a3.001 3.001 0 0 0 1.247-1.247c.298-.55.451-1.216.451-1.986 0-.768-.121-1.435-.363-1.985a2.599 2.599 0 0 0-1.11-1.255c-.499-.29-1.127-.432-1.875-.432-.7 0-1.312.126-1.843.385-.531.259-.95.659-1.248 1.208-.297.55-.45 1.248-.45 2.087 0 1.099.281 1.986.861 2.66.571.667 1.416 1.005 2.535 1.005.676 0 1.271-.142 1.803-.424l-.008-.016Zm10.239 1.813a2.071 2.071 0 0 1-.926-.974c-.201-.423-.306-.949-.306-1.561V8.507h-2.599V6.993h2.599V3.57l2.423-.235v3.657h4.016v1.514h-4.016v5.885c0 .494.08.832.249 1.004.169.173.443.26.837.26.539 0 1.022-.08 1.465-.228.435-.15.797-.322 1.078-.518l.709 1.671a7.76 7.76 0 0 1-1.795.77c-.644.188-1.376.274-2.181.274-.62 0-1.135-.11-1.553-.338v-.007Zm7.673-6.57h8.418v1.931h-8.418v-1.93Zm13.087 6.617c-.917-.141-1.682-.337-2.301-.573l.483-1.946c.499.197 1.158.393 1.979.589.821.196 1.698.298 2.624.298 1.28 0 2.157-.086 2.632-.267.474-.18.716-.447.716-.816 0-.235-.065-.416-.193-.55-.129-.132-.322-.242-.572-.337-.257-.094-.644-.18-1.159-.258a71.473 71.473 0 0 0-1.601-.22l-.765-.102a32.097 32.097 0 0 1-1.561-.243 5.763 5.763 0 0 1-1.078-.306 2.896 2.896 0 0 1-1.248-.966 2.473 2.473 0 0 1-.483-1.514c0-1.02.467-1.828 1.393-2.417.925-.588 2.309-.886 4.136-.886.837 0 1.65.086 2.455.258a9.278 9.278 0 0 1 2.149.73l-.524 1.656a12.969 12.969 0 0 0-2.076-.651 10.23 10.23 0 0 0-2.197-.236c-1.143 0-1.98.134-2.511.392-.531.26-.797.62-.797 1.06 0 .235.089.44.274.596.185.157.427.298.74.4.524.173 1.288.29 2.302.353.137.016.266.024.403.04a29.53 29.53 0 0 1 2.237.298c.595.102 1.094.267 1.513.494.378.196.676.487.901.879.225.392.33.832.33 1.326 0 1.09-.435 1.883-1.288 2.378-.861.494-2.124.745-3.79.745-1.143 0-2.173-.07-3.09-.22l-.033.016Zm12.984-.416c-.885-.455-1.545-1.09-1.98-1.899-.434-.808-.66-1.734-.66-2.785 0-1.216.258-2.237.765-3.037.507-.808 1.223-1.405 2.133-1.789.909-.385 1.971-.58 3.195-.58 1.319 0 2.414.219 3.299.658.877.44 1.537 1.06 1.972 1.868.426.808.644 1.766.644 2.88 0 1.114-.258 2.134-.765 2.942-.515.808-1.223 1.413-2.14 1.82-.918.409-1.972.613-3.171.613-1.32 0-2.423-.228-3.3-.69h.008Zm5.102-1.444c.532-.282.95-.698 1.248-1.247.298-.55.451-1.216.451-1.986 0-.768-.121-1.435-.363-1.985a2.599 2.599 0 0 0-1.11-1.255c-.499-.29-1.127-.432-1.875-.432-.7 0-1.312.126-1.843.385-.531.259-.95.659-1.248 1.208-.297.55-.45 1.248-.45 2.087 0 1.099.281 1.986.861 2.66.571.667 1.416 1.005 2.535 1.005.676 0 1.271-.142 1.803-.424l-.009-.016Zm6.411-4.757h8.418v1.931h-8.418v-1.93Zm13.089 6.617c-.917-.141-1.682-.337-2.301-.573l.483-1.946c.498.197 1.158.393 1.979.589.821.196 1.698.298 2.624.298 1.279 0 2.157-.086 2.631-.267.475-.18.717-.447.717-.816 0-.235-.065-.416-.193-.55-.129-.132-.322-.242-.572-.337-.257-.094-.644-.18-1.159-.258a71.473 71.473 0 0 0-1.601-.22l-.765-.102a32.097 32.097 0 0 1-1.561-.243 5.763 5.763 0 0 1-1.078-.306 2.896 2.896 0 0 1-1.248-.966 2.473 2.473 0 0 1-.483-1.514c0-1.02.467-1.828 1.393-2.417.925-.588 2.309-.886 4.136-.886.837 0 1.65.086 2.455.258a9.27 9.27 0 0 1 2.148.73l-.523 1.656a12.969 12.969 0 0 0-2.076-.651 10.236 10.236 0 0 0-2.197-.236c-1.143 0-1.98.134-2.511.392-.531.26-.797.62-.797 1.06 0 .235.089.44.274.596.185.157.427.298.74.4.523.173 1.288.29 2.302.353.137.016.266.024.402.04.902.094 1.65.188 2.238.298.595.102 1.094.267 1.513.494.378.196.676.487.901.879.225.392.33.832.33 1.326 0 1.09-.435 1.883-1.288 2.378-.861.494-2.124.745-3.79.745-1.143 0-2.173-.07-3.09-.22l-.033.016Zm13.145-.298a4.516 4.516 0 0 1-2.06-1.781c-.491-.793-.741-1.766-.741-2.92 0-1.215.25-2.243.757-3.067a4.569 4.569 0 0 1 2.108-1.837c.902-.4 1.948-.596 3.147-.596 1.384 0 2.535.26 3.445.77.909.51 1.545 1.215 1.915 2.102.37.895.451 1.915.249 3.068h-9.021c.096.683.298 1.24.611 1.671a2.8 2.8 0 0 0 1.224.958c.499.204 1.086.306 1.778.306a5.39 5.39 0 0 0 1.232-.141 6.027 6.027 0 0 0 1.167-.4c.378-.181.756-.385 1.15-.62l1.594 1.592c-.62.455-1.401.824-2.342 1.091-.942.267-1.996.4-3.171.4-1.175 0-2.181-.196-3.058-.588l.016-.008Zm5.963-6.976a2.525 2.525 0 0 0-1.07-1.051c-.459-.236-1.006-.353-1.658-.353-.652 0-1.175.11-1.674.337-.499.22-.909.588-1.223 1.09-.314.503-.491 1.162-.515 1.978l6.583-.275c-.04-.682-.193-1.255-.443-1.718v-.008Zm6.791 6.207c-1.126-.895-1.682-2.205-1.682-3.94 0-1.734.556-3.17 1.674-4.08 1.119-.91 2.632-1.365 4.539-1.365 1.038 0 1.916.157 2.648.463.732.306 1.28.761 1.666 1.35.386.588.604 1.302.66 2.126h-2.101a3.08 3.08 0 0 0-.788-1.577c-.403-.424-1.087-.628-2.061-.628-1.118 0-2.003.314-2.663.942-.66.627-.99 1.553-.99 2.777 0 .746.153 1.39.45 1.923.298.534.733.934 1.288 1.208.555.275 1.207.416 1.948.416a5.38 5.38 0 0 0 1.553-.22 6.402 6.402 0 0 0 2.438-1.295l1.336 1.515a6.533 6.533 0 0 1-2.237 1.28c-.877.297-1.915.454-3.131.454-1.907 0-3.428-.447-4.547-1.342v-.007Zm12.067-9.33h1.835l.482 3.979c0 .062.025.101.065.11.04.007.064-.024.08-.087a11.9 11.9 0 0 1 .757-1.938c.29-.573.732-1.075 1.32-1.522.595-.448 1.368-.667 2.317-.667.765 0 1.417.164 1.956.494.539.33.958.84 1.247 1.538.298.698.443 1.577.443 2.66v.667h-2.438v-.667c0-1.02-.169-1.781-.491-2.276-.33-.494-.861-.737-1.586-.737-.724 0-1.36.227-1.899.683a4.65 4.65 0 0 0-1.231 1.577c-.282.596-.427 1.075-.427 1.444v5.272h-2.438V6.954l.008-.024Zm15.447 10.099a4.514 4.514 0 0 1-2.061-1.781c-.49-.793-.74-1.766-.74-2.92 0-1.215.249-2.243.756-3.067a4.576 4.576 0 0 1 2.109-1.837c.901-.4 1.948-.596 3.147-.596 1.384 0 2.535.26 3.444.77.91.51 1.545 1.215 1.916 2.102.37.895.45 1.915.249 3.068h-9.022c.097.683.298 1.24.612 1.671.314.432.724.754 1.223.958.499.204 1.087.306 1.779.306.418 0 .829-.047 1.231-.141a5.98 5.98 0 0 0 1.167-.4 14.26 14.26 0 0 0 1.151-.62l1.593 1.592c-.619.455-1.4.824-2.341 1.091-.942.267-1.996.4-3.171.4-1.175 0-2.181-.196-3.058-.588l.016-.008Zm5.963-6.976a2.531 2.531 0 0 0-1.07-1.051c-.459-.236-1.006-.353-1.658-.353-.652 0-1.175.11-1.674.337-.499.22-.909.588-1.223 1.09-.314.503-.491 1.162-.515 1.978l6.583-.275c-.041-.682-.193-1.255-.443-1.718v-.008Zm8.94 7.227a2.071 2.071 0 0 1-.926-.974c-.201-.423-.306-.949-.306-1.561V8.507h-2.599V6.993h2.599V3.57l2.423-.235v3.657h4.016v1.514h-4.016v5.885c0 .494.08.832.249 1.004.169.173.443.26.837.26a4.54 4.54 0 0 0 1.465-.228c.435-.15.797-.322 1.078-.518l.709 1.671a7.76 7.76 0 0 1-1.795.77c-.644.188-1.376.274-2.181.274-.62 0-1.135-.11-1.553-.338v-.007Z"/>
</svg>
