<svg xmlns="http://www.w3.org/2000/svg" width="398" height="321" fill="none" viewBox="0 0 398 321">
  <path fill="#FAB70B" d="M347.654 170.645a10.91 10.91 0 0 1-7.279 4.432l-41.71 6.048 15.253 12.682c3.545 2.943 4.643 7.888 2.695 12.139a11.127 11.127 0 0 1-1.031 1.785c-2.259 3.154-6.124 4.931-10.071 4.462l-40.433-4.781 6.836 23.471c.9 3.092.271 6.387-1.579 8.973a10.732 10.732 0 0 1-2.054 2.166c-3.375 2.686-8.023 3.134-11.746 1.119l-28.952-15.63-8.346 32.022a10.714 10.714 0 0 1-1.645 3.507 10.91 10.91 0 0 1-7.167 4.411c-4.256.662-8.428-1.273-10.568-4.895l-12.403-21.02-24.044 33.109c-2.755 3.8-7.681 5.404-12.091 3.945-4.41-1.459-7.254-5.63-6.986-10.254l1.166-19.897-32.783 26.681c-3.916 3.188-9.503 3.263-13.364.182-3.861-3.081-4.92-8.474-2.541-12.886l9.38-17.401-33.085 16.949c-4.654 2.388-10.297 1.109-13.307-3.001-2.65-3.617-2.562-8.488.028-12.104.352-.491.754-.962 1.202-1.404l16.397-16.188-28.296 7.912c-5.073 1.419-10.347-1.031-12.388-5.745-1.471-3.401-.937-7.24 1.15-10.164a10.786 10.786 0 0 1 3.101-2.895l25.01-15.512-22.929 1.091c-5.192.245-9.714-3.268-10.65-8.287-.533-2.863.182-5.736 1.81-8.011a10.88 10.88 0 0 1 5.063-3.862l34.833-12.896-19.03-4.916c-4.827-1.251-8.024-5.7-7.633-10.647a10.56 10.56 0 0 1 1.95-5.319 10.908 10.908 0 0 1 7.279-4.432l41.71-6.048-15.254-12.682c-3.545-2.943-4.643-7.888-2.695-12.139a11.07 11.07 0 0 1 1.032-1.785c2.259-3.154 6.123-4.931 10.07-4.462l40.427 4.783-6.836-23.47c-.901-3.093-.272-6.388 1.578-8.974a10.798 10.798 0 0 1 2.055-2.166c3.375-2.686 8.023-3.134 11.753-1.121l28.951 15.63 8.346-32.022c.337-1.277.896-2.46 1.645-3.507a10.91 10.91 0 0 1 7.167-4.411c4.256-.662 8.428 1.273 10.568 4.895l12.403 21.02 24.044-33.109c2.755-3.8 7.682-5.404 12.092-3.945s7.254 5.63 6.985 10.254l-1.166 19.897 32.784-26.681c3.916-3.188 9.509-3.265 13.363-.182 3.862 3.08 4.921 8.474 2.541 12.886l-9.38 17.4 33.086-16.948c4.653-2.388 10.296-1.109 13.307 3.001 2.649 3.617 2.561 8.488-.029 12.104-.351.49-.753.962-1.201 1.404l-16.397 16.188 28.296-7.912c5.072-1.42 10.346 1.031 12.388 5.745 1.471 3.401.936 7.24-1.15 10.163a10.789 10.789 0 0 1-3.102 2.896l-25.01 15.512 22.929-1.091c5.193-.245 9.715 3.268 10.651 8.287.535 2.869-.183 5.736-1.811 8.011a10.88 10.88 0 0 1-5.062 3.862l-34.833 12.896 19.029 4.916c4.827 1.251 8.024 5.7 7.633 10.647a10.56 10.56 0 0 1-1.949 5.319Z"/>
  <path fill="#F56D4B" d="m291.802 129.943 59.178-36.644-66.873 18.774 45.012-44.223-62.976 32.243 25.302-46.5-51.505 41.771 2.706-43.182-33.831 46.255-20.399-34.603-11.991 45.184-40.898-21.924 11.16 38.656-56.56-6.509 33.115 27.429-65.353 9.615 50.933 12.986-66.28 24.581 62.711-3.136-59.178 36.644 66.878-18.783-45.017 44.232 62.981-32.252-25.307 46.509 51.505-41.771-2.706 43.182 33.838-46.257 20.397 34.596 11.986-45.175 40.897 21.924-11.159-38.657 56.559 6.51-33.114-27.429 65.352-9.615-50.932-12.986 66.284-24.59-62.715 3.145Z"/>
  <path fill="#fff" d="M163.069 218.444c-3.846-.24-7.473-1.285-11.184-2.966-3.535-1.6-7.099-3.926-10.225-6.467-2.926-2.379-5.725-5.032-8.2-8.095a41.2 41.2 0 0 1-5.764-9.544c-1.531-3.542-2.584-7.29-3.075-11.073-.515-3.958-.526-7.866-.236-11.676.302-3.995 1.067-8.168 2.364-11.814 1.33-3.736 2.998-7.254 5.388-9.919 2.106-2.347 4.803-4.287 8.266-4.333 3.457-.043 6.587 1.585 9.459 3.646 3.756 2.702 6.897 6.753 9.739 10.761 3.579 5.054 6.492 10.854 8.949 16.539 2.524 5.83 4.831 12.102 6.027 18.361.921 4.832 1.687 9.918 1.026 14.503-.493 3.445-1.483 6.773-3.918 9.146-2.275 2.212-5.512 3.11-8.596 2.924l-.02.007Zm-24.054-32.025a115.171 115.171 0 0 0 6.334 9.855c2.046 2.845 4.253 5.653 6.644 8.08 1.965 1.997 4.053 3.983 6.367 5.525 2.019 1.345 3.826 2.03 5.381 1.922 1.451-.103 2.403-.942 2.821-2.563.417-1.621.312-3.911-.333-6.828-.792-3.585-2.097-7.054-3.464-10.453-1.808-4.488-4.049-8.939-6.351-13.15-2.217-4.058-4.668-8.164-7.339-11.914-2.063-2.898-4.263-5.78-6.802-8.248-2.08-2.032-3.982-3.291-5.671-3.81-1.688-.52-3.047-.191-4.105.893-1.024 1.045-1.617 2.634-1.822 4.675-.205 2.04-.018 4.399.512 7.04.598 2.984 1.643 5.904 2.751 8.708 1.387 3.516 3.218 7.006 5.077 10.268Z"/>
  <path fill="#fff" d="M162.444 153.81c-1.404-3.208-2.821-6.411-4.398-9.527-1.245-2.451-2.319-4.448-3.221-5.984-.902-1.535-1.663-2.709-2.284-3.528-.62-.818-1.101-1.573-1.465-2.096-.205-.298-.418-.6-.54-.874l-.059-.141c-.157-.364-.115-.64.121-.825a175.424 175.424 0 0 1 10.834-7.465c.297-.184.657-.161 1.082.072.425.234.828.665 1.203 1.293 12.907 19.307 25.698 38.702 38.47 58.109.352.556.601.804.768.735.16-.066.157-.415-.009-1.052-5.414-23.822-10.878-47.636-16.242-71.467a169.506 169.506 0 0 1 13.64-4.193c.293-.073.522.086.684.463l.059.142c.126.287.204.662.291 1.041.143.66.389 1.578.578 2.652.196 1.072.556 2.507 1.094 4.298.531 1.794 1.286 4.047 2.268 6.743 1.243 3.42 2.664 6.782 4.097 10.134 5.625 13.018 11.243 26.038 16.866 39.049 1.458 3.336 2.931 6.674 4.565 9.924 1.295 2.566 2.412 4.651 3.354 6.269.943 1.617 1.732 2.862 2.376 3.731.646.876 1.148 1.675 1.531 2.235.22.322.437.638.563.925l.059.141c.164.384.121.659-.13.821a168.287 168.287 0 0 1-13.943 8.003c-.268.13-.487.004-.657-.399l-.06-.148c-.131-.3-.215-.695-.319-1.106-.165-.704-.431-1.688-.658-2.837-.227-1.15-.629-2.672-1.196-4.556-.573-1.882-1.366-4.232-2.388-7.032-1.289-3.521-2.756-6.985-4.23-10.447l-14.835-34.341c-.296-.69-.503-1.046-.62-1.059-.11-.015-.065.349.146 1.081 4.759 20.97 9.569 41.937 14.335 62.904.211.732.247 1.361.123 1.882-.125.521-.356.843-.678.968a123.034 123.034 0 0 1-6.382 2.323c-.335.108-.724.016-1.176-.282-.453-.298-.879-.779-1.271-1.439-11.216-17.043-22.463-34.061-33.818-50.993-.379-.62-.591-.894-.634-.814-.043.079.073.456.361 1.12l13.497 31.25c1.45 3.309 2.906 6.617 4.532 9.84 1.295 2.566 2.422 4.685 3.384 6.339.954 1.657 1.776 2.957 2.449 3.897.673.94 1.198 1.789 1.592 2.383.236.353.458.682.577.971l.061.148c.164.384.107.613-.186.686-3.083.77-6.194 1.425-9.335 1.98-.299.053-.528-.106-.686-.47l-.058-.141c-.122-.273-.194-.629-.269-.991-.131-.62-.355-1.493-.526-2.508-.17-1.015-.508-2.376-1.008-4.093-.497-1.71-1.215-3.866-2.149-6.454-1.187-3.285-2.551-6.513-3.929-9.737-5.404-12.521-10.815-25.04-16.219-37.561l.018.008Zm62.65-51.633c3.64-.106 7.597.881 10.886 3.053 2.551 1.687 5.094 4.004 6.423 7.033 1.1 2.504 1.449 4.609 1.108 6.359-.341 1.751-1.224 2.822-2.689 3.133-.757.163-1.575.128-2.457-.114-.881-.241-1.736-.688-2.566-1.347-.83-.659-1.592-1.536-2.272-2.637-.687-1.099-1.2-2.414-1.535-3.911-.288-2.102-.972-3.632-2.098-4.662-1.126-1.03-2.322-1.506-3.573-1.381-1.458.141-2.532 1.056-3.203 2.788-.669 1.74-.889 4.1-.628 7.064.314 3.501 1.146 7.069 2.243 10.42 1.409 4.286 3.2 8.464 5.244 12.488 2.539 4.987 5.343 10.1 8.627 14.593 2.173 2.975 4.475 5.954 7.223 8.351 2.127 1.853 4.006 2.903 5.599 3.2 1.593.297 2.878.014 3.886-.799 1.118-.899 1.848-2.293 2.229-4.108.375-1.812.332-3.876-.243-6.003-.696-2.59-1.507-5.384-3.097-7.695-1.246-1.808-2.54-3.186-3.876-4.141-1.344-.953-2.653-1.648-3.918-2.057a49.144 49.144 0 0 1-2.948-1.042c-.323-.144-.634-.54-.94-1.185-.303-.639-.281-1.032.072-1.183 4.942-2.02 9.887-4.027 14.846-6.017.303-.119.618-.074.962.136.342.203.585.548.744 1.014 1.724 5.133 3.111 10.491 3.848 15.774.634 4.536.998 9.275.746 13.702-.213 3.794-.616 7.759-1.844 11.152-.981 2.707-2.199 5.717-4.273 7.449-2.374 1.981-4.294 2.701-7.369 2.611-3.227-.092-6.475-2.204-9.349-4.349-3.952-2.95-7.281-7.296-10.263-11.448-3.927-5.474-7.091-11.726-9.781-17.934-2.658-6.13-4.932-12.602-6.405-19.165-1.123-5.02-1.932-10.534-1.38-15.357.424-3.702 1.279-7.302 3.632-10.057 2.116-2.475 5.207-3.652 8.405-3.747l-.016.019Zm23.66 3.445c-.19-.437-.231-.79-.113-1.047.118-.257.329-.361.653-.325a231.5 231.5 0 0 1 8.04 1.159c.853.145 1.455.634 1.813 1.463 4.36 10.505 8.729 21.015 13.096 31.518.367.834.259 1.49-.328 1.955a202.9 202.9 0 0 1-4.634 3.573c-.605.455-1.123.189-1.556-.807a74134.15 74134.15 0 0 1-16.964-37.492l-.007.003Zm22.493 50.667c-.704-1.619-1.002-3.309-.87-5.011.133-1.703.681-2.952 1.588-3.833.907-.881 1.889-1.128 2.911-.809 1.022.319 1.808 1.1 2.396 2.449.588 1.348.804 2.845.662 4.565-.135 1.718-.579 3.205-1.366 4.347-.792 1.152-1.687 1.583-2.711 1.257-1.019-.334-1.907-1.346-2.61-2.965Z"/>
</svg>
