<svg width="60" height="28" viewBox="0 0 60 28" fill="none" xmlns="http://www.w3.org/2000/svg">
    <path d="M8.63673 0.964677C11.1181 0.44319 14.0146 0.683912 16.6284 2.865C17.2014 3.3432 17.7373 3.89813 18.2391 4.5275C19.3022 3.89229 20.4295 3.08582 21.6154 2.0709L25.4286 6.38279C23.9169 7.67652 22.4307 8.72869 20.9786 9.56561C21.392 10.6563 21.7672 11.8477 22.1019 13.1423C23.9108 20.1395 20.5037 25.9419 15.2883 27.4877C12.6739 28.2622 9.716 27.8946 7.14387 26.1001C4.6047 24.3282 2.72178 21.3726 1.70346 17.4343C0.224124 11.7122 0.264874 7.65449 1.98684 4.87471C3.75887 2.01431 6.82146 1.34625 8.63673 0.964677ZM48.2399 4.1448C48.961 3.66819 49.9203 3.66012 50.6917 4.13654C51.4632 4.61327 51.8925 5.48037 51.8021 6.34682L51.778 6.51994C51.368 8.7322 51.2514 10.612 51.3777 12.1058C51.5065 13.6276 51.8723 14.5657 52.2479 15.0771C52.5511 15.4897 52.9085 15.7097 53.5181 15.7425C54.2484 15.7817 55.4257 15.5418 57.1226 14.6282L59.4057 18.5977C57.3412 19.7092 55.329 20.3306 53.4485 20.2296C51.4476 20.122 49.7703 19.198 48.6181 17.6302C47.5387 16.1611 47.0267 14.2802 46.8597 12.3075C46.8 11.6024 46.7847 10.861 46.8069 10.0887C46.302 10.2958 45.7261 10.5281 45.0671 10.786C45.1821 11.4036 45.2624 12.0427 45.2934 12.6804C45.3553 13.9547 45.23 15.4053 44.6299 16.678C43.9879 18.0389 42.8099 19.1516 41.0225 19.5142L39.9734 15.2116L41.0213 19.5124C39.3517 19.8508 37.785 19.5804 36.4409 18.7018C36.2661 18.5875 36.0996 18.4648 35.9402 18.3364C35.8904 18.4164 35.8389 18.4959 35.7847 18.5743C34.8694 19.8971 33.4675 20.756 31.6663 21.1213C29.7605 21.5077 27.9897 21.3228 26.4981 20.3679C25.06 19.4471 24.2585 18.046 23.7705 16.7746C23.2821 15.502 23.0089 14.0931 22.7991 12.8664C22.5741 11.5505 22.4238 10.4774 22.1899 9.51805L26.5945 8.62509C26.8787 9.79071 27.076 11.1648 27.2675 12.2847C27.4743 13.4937 27.6894 14.5106 28.0005 15.3213C28.312 16.1329 28.6226 16.4745 28.8516 16.6213C29.0276 16.7339 29.4801 16.9422 30.5922 16.7168C31.4541 16.5419 31.8164 16.2189 32.0124 15.936C32.2455 15.5989 32.4238 15.0481 32.4473 14.1697C32.481 12.9061 32.2007 11.4519 31.8374 9.90524C31.6423 9.12554 31.4638 8.36787 31.2938 7.67069L35.7004 6.77758L36.1193 8.46855C36.1671 8.665 36.2126 8.86655 36.2602 9.07061C36.7002 10.8231 37.146 12.3745 37.7552 13.5705C38.1707 14.3857 38.5483 14.7939 38.8324 14.9798C39.0085 15.0948 39.2578 15.2031 39.7304 15.1448L39.9483 15.1087C40.2198 15.0537 40.3674 14.9447 40.5081 14.6465C40.6907 14.2594 40.8068 13.6111 40.7637 12.7225C40.7426 12.2895 40.6849 11.8404 40.6012 11.3987C40.4945 11.3754 40.3885 11.3496 40.2841 11.319C38.6699 10.8441 37.7183 9.57989 37.5316 8.23059C37.3786 7.12313 37.7414 5.74054 38.886 4.97062C39.542 4.52949 40.4251 4.33833 41.3472 4.61908C42.0901 4.84538 42.6476 5.31263 43.0481 5.78929L43.2109 5.99328L43.4256 6.30201C43.4641 6.36103 43.4996 6.42294 43.537 6.48444C45.8367 5.57928 46.8312 5.1216 47.3079 4.85638C47.7606 4.60445 47.4465 4.75897 48.1008 4.24634L48.2399 4.1448ZM6.33669 11.2337C6.39712 12.4717 6.64012 14.1106 7.20037 16.2777C7.97465 19.272 9.22197 20.8291 10.2766 21.5653C11.2987 22.2784 12.4013 22.4148 13.4352 22.1085C15.5161 21.4919 17.7666 18.7923 16.605 14.2989C16.3535 13.3261 16.0881 12.4714 15.8194 11.7205C14.0253 12.1854 12.3096 12.3325 10.6931 12.2217C9.08763 12.1116 7.62714 11.7495 6.33669 11.2337ZM12.3329 6.60383C11.6744 6.30196 10.9481 6.26626 10.0542 6.45414C9.98897 6.46785 9.92517 6.4834 9.8625 6.49702C10.1762 6.5544 10.5048 6.59776 10.8473 6.62124C11.306 6.65266 11.8019 6.64999 12.3329 6.60383Z" fill="#F56D4B"/>
</svg>