<svg width="51" height="25" viewBox="0 0 51 25" fill="none" xmlns="http://www.w3.org/2000/svg">
<path d="M30.4688 4.62402C29.2713 4.88894 28.0669 5.11632 26.8604 5.31738C27.0011 6.74826 27.1658 8.4559 27.3369 10.2646C27.9042 10.0491 28.5107 9.92986 29.1758 9.88672C33.7592 9.61358 34.6399 13.8737 35.0654 15.915C35.173 16.4372 35.3396 17.2464 35.5107 17.6777C35.9265 17.5963 36.3771 17.41 36.8467 17.1465C35.4868 15.0045 35.0115 12.397 35.6719 10.1064C36.4937 7.25545 38.5582 5.14203 41.0576 4.5957C43.1023 4.15005 45.182 4.84018 46.6152 6.45508C48.9778 9.12421 48.4245 13.3366 45.3379 16.2549L44.917 16.6523C46.179 16.6044 47.8478 16.3368 49.9121 15.8672L51.0029 20.4814C45.2406 21.7896 42.2515 21.6124 40.3242 20.5869C38.9107 21.55 37.4041 22.2588 35.8096 22.417C35.7802 22.417 35.7501 22.422 35.7158 22.4268C31.5489 22.7763 30.7175 18.7809 30.3213 16.8496C30.1794 16.1691 29.9194 14.913 29.6455 14.6016C29.6258 14.6063 29.5672 14.6017 29.4648 14.6064C29.025 14.6352 28.8879 14.7741 28.8145 14.8604C28.0856 15.6942 28.1004 17.9901 28.2275 19.8877C28.3205 20.8939 28.3983 21.809 28.4668 22.5996L23.6484 23.0068L23.5654 22.1494C23.4969 21.4785 23.4288 20.7495 23.3799 20.002C22.9873 15.6754 22.4441 9.87231 22.0654 5.98633C20.5379 6.16571 19.0144 6.31937 17.502 6.46094C17.7852 8.34893 18.0855 10.1666 18.3818 11.9424C19.0275 15.8525 19.6438 19.5423 20.0547 23.7734L15.2363 24.2188V24.2236C14.8401 20.1506 14.2433 16.5328 13.6074 12.7041C13.2957 10.8329 12.9783 8.91413 12.6797 6.90527C9.02166 7.24717 5.30524 7.64902 1.73047 8.35254L0.78125 3.7041C5.39404 2.80321 10.0905 2.37695 14.6299 1.96484C19.5311 1.52399 24.5989 1.06379 29.4023 0L30.4688 4.62402ZM42.2266 9.20117H42.2314C42.1876 9.20123 42.1484 9.21115 42.1045 9.2207C41.4882 9.35502 40.6959 10.0788 40.3193 11.3916C40.114 12.1056 40.2024 13.126 40.6523 14.0938C40.9066 13.8542 41.1608 13.6147 41.4004 13.3848L41.9727 12.8428C43.1024 11.779 43.5576 10.2458 42.9512 9.56055C42.6675 9.23948 42.432 9.182 42.2266 9.20117Z" fill="#F56D4B"/>
</svg>
