<svg xmlns="http://www.w3.org/2000/svg" width="276" height="160" fill="none" viewBox="0 0 276 160">
  <path fill="#F56D4B" d="m39.153 125.879-25.734-3.721c2.271-10.43 13.455-23.828 9.174-34.789-3.117-7.975-13.255-13.41-13.323-22.59-.086-10.933 13.319-17.73 15.39-28.002C26.794 26.19 17.688 12.9 15.986 2.37L34.22 5.007c1.487 9.626 6.874 17.974 8.347 27.441 1.47 9.452-4.065 14.992-9.214 22.154-5.326 7.412-8.021 12.964-2.923 21.393 5.557 9.185 11.554 11.895 10.599 23.45 3.356-11.38-2.478-12.718-5.468-22.708-2.8-9.37.888-13.927 7.335-20.755C48.968 49.55 56.298 44.04 56.52 34.466c.211-9.053-3.59-17.47-3.215-26.7l18.064 2.612c1.428 9.652 6.846 18.102 8.18 27.603 1.337 9.521-4.522 15.112-9.687 22.282-5.439 7.551-7.752 13.023-2.516 21.466 5.745 9.262 11.444 11.977 9.872 23.659 3.981-11.496-1.564-12.733-4.741-22.917-2.937-9.42.349-13.868 6.928-20.829 6.105-6.46 13.74-12.015 14.098-21.643.34-9.078-3.476-17.61-3.054-26.862l16.361 2.365c-.629 11.936 6.222 25.326-.376 36.184-5.09 8.381-17.592 14.22-19.633 24.302-1.902 9.386 8.65 15.345 8.342 24.378-.363 10.549-13.2 21.642-17.484 31.075l-24.878-3.597c2.14-10.012 11.897-21.315 10.22-31.772-1.927-12.06-14.374-16.07-13.308-29.515-3.847 12.666 6.902 16.983 6.494 28.53-.384 10.889-12.723 21.005-17.04 30.786l.005.006Zm162.211 22.711-25.734-3.721c2.271-10.43 13.455-23.828 9.174-34.789-3.117-7.976-13.255-13.41-13.323-22.59-.086-10.933 13.318-17.73 15.39-28.002 2.134-10.587-6.972-23.877-8.674-34.406l18.234 2.636c1.487 9.626 6.874 17.974 8.347 27.441 1.47 9.452-4.065 14.991-9.214 22.154-5.326 7.412-8.021 12.964-2.923 21.393 5.557 9.185 11.554 11.895 10.599 23.45 3.356-11.38-2.478-12.718-5.468-22.708-2.8-9.37.888-13.927 7.335-20.755 6.071-6.432 13.402-11.942 13.625-21.516.211-9.053-3.59-17.47-3.215-26.7l18.063 2.612c1.429 9.652 6.847 18.102 8.181 27.603 1.337 9.521-4.522 15.111-9.687 22.282-5.439 7.551-7.752 13.022-2.516 21.466 5.745 9.262 11.443 11.977 9.872 23.659 3.981-11.496-1.565-12.733-4.741-22.917-2.937-9.42.349-13.868 6.928-20.829 6.105-6.46 13.74-12.015 14.098-21.643.339-9.078-3.476-17.61-3.054-26.862l16.361 2.365c-.629 11.936 6.222 25.326-.376 36.184-5.09 8.381-17.592 14.22-19.633 24.302-1.902 9.386 8.65 15.345 8.342 24.378-.363 10.549-13.2 21.642-17.484 31.075l-24.878-3.597c2.14-10.012 11.897-21.315 10.22-31.772-1.927-12.061-14.374-16.07-13.308-29.515-3.847 12.666 6.902 16.983 6.494 28.53-.384 10.889-12.723 21.005-17.039 30.786l.004.006Z"/>
  <path fill="#FAB70B" d="M145.524 19.396c-18.609-2.75-30.195 6.52-32.683 25.375l-8.084 61.271c-2.487 18.851 6.256 31.129 24.865 33.878 18.608 2.749 30.194-6.519 32.682-25.375l8.084-61.271c2.488-18.851-6.256-31.129-24.864-33.878Z"/>
  <path fill="#fff" d="M143.361 36.112c-6.115-.889-10.387 1.76-11.509 10.2l-.855 6.425 2.028 1.04 10.961 5.626-11.85 2.931-2.497.62-6.269 47.152c-1.122 8.439 2.297 12.206 8.412 13.095 6.115.889 10.387-1.76 11.509-10.199l8.482-63.795c1.122-8.439-2.297-12.206-8.412-13.095Z"/>
</svg>
